# xmcd
#
# Track frame offsets:
#	150
#	22755
#	40479
#	56220
#	75221
#	94366
#	112231
#	131004
#	146265
#	165278
#	181691
#	196116
#
# Disc length: 2841 seconds
#
# Revision: 2
# Processed by: cddbd v1.4PL0 Copyright (c) Steve Scherf et al.
# Submitted via: audiograbber 1.81.03
#
DISCID=930b170c
DTITLE=Ponty Bone - Fantasize
DYEAR=1900
DGENRE=
TTITLE0=Now's the Time (Do What You Do Best)
TTITLE1=Babay, U Got It (Spin the Top)
TTITLE2=Ain't Got No Sweet Thing
TTITLE3=Midnight Sun
TTITLE4=Me, Myself and I
TTITLE5=I Must Be Dreaming
TTITLE6=Macumba
TTITLE7=Fantasize
TTITLE8=Just Like Home
TTITLE9=Clifton's Boogie
TTITLE10=Louisiana Lisa
TTITLE11=Baby, You Know
EXTD=
EXTT0=
EXTT1=
EXTT2=
EXTT3=
EXTT4=
EXTT5=
EXTT6=
EXTT7=
EXTT8=
EXTT9=
EXTT10=
EXTT11=
PLAYORDER=
